<mxfile host="app.diagrams.net" agent="Mozilla/5.0 (Macintosh; Intel Mac OS X 10_15_7) AppleWebKit/605.1.15 (KHTML, like Gecko) Version/17.2.1 Safari/605.1.15" version="24.7.12">
  <diagram name="Sida-1" id="82awPTNViQVr0rAd1bzf">
    <mxGraphModel dx="1194" dy="647" grid="1" gridSize="10" guides="1" tooltips="1" connect="1" arrows="1" fold="1" page="1" pageScale="1" pageWidth="827" pageHeight="1169" math="0" shadow="0">
      <root>
        <mxCell id="0" />
        <mxCell id="1" parent="0" />
        <mxCell id="8NC1WQgO3h0OV6-Bim1F-6" value="" style="edgeStyle=orthogonalEdgeStyle;rounded=0;orthogonalLoop=1;jettySize=auto;html=1;" edge="1" parent="1" source="W77Re-WcuIGh2rQA4MoI-1" target="W77Re-WcuIGh2rQA4MoI-19">
          <mxGeometry relative="1" as="geometry" />
        </mxCell>
        <mxCell id="W77Re-WcuIGh2rQA4MoI-1" value="" style="ellipse;whiteSpace=wrap;html=1;aspect=fixed;fillColor=#000000;" parent="1" vertex="1">
          <mxGeometry x="185" y="65" width="20" height="20" as="geometry" />
        </mxCell>
        <mxCell id="W77Re-WcuIGh2rQA4MoI-2" value="Kunden väljer film" style="rounded=1;whiteSpace=wrap;html=1;fillColor=#FFFFFF;" parent="1" vertex="1">
          <mxGeometry x="582" y="330" width="120" height="45" as="geometry" />
        </mxCell>
        <mxCell id="W77Re-WcuIGh2rQA4MoI-5" value="Välj dag" style="whiteSpace=wrap;html=1;fillColor=#FFFFFF;rounded=1;" parent="1" vertex="1">
          <mxGeometry x="52" y="440" width="120" height="45" as="geometry" />
        </mxCell>
        <mxCell id="W77Re-WcuIGh2rQA4MoI-10" value="" style="edgeStyle=orthogonalEdgeStyle;rounded=0;orthogonalLoop=1;jettySize=auto;html=1;" parent="1" source="W77Re-WcuIGh2rQA4MoI-7" target="W77Re-WcuIGh2rQA4MoI-9" edge="1">
          <mxGeometry relative="1" as="geometry" />
        </mxCell>
        <mxCell id="W77Re-WcuIGh2rQA4MoI-7" value="Välj föreställning" style="whiteSpace=wrap;html=1;fillColor=#FFFFFF;rounded=1;" parent="1" vertex="1">
          <mxGeometry x="582" y="395" width="120" height="45" as="geometry" />
        </mxCell>
        <mxCell id="W77Re-WcuIGh2rQA4MoI-12" value="" style="edgeStyle=orthogonalEdgeStyle;rounded=0;orthogonalLoop=1;jettySize=auto;html=1;exitX=0.5;exitY=1;exitDx=0;exitDy=0;" parent="1" source="W77Re-WcuIGh2rQA4MoI-9" edge="1">
          <mxGeometry relative="1" as="geometry">
            <mxPoint x="700" y="106.50000000000003" as="sourcePoint" />
            <mxPoint x="700" y="169" as="targetPoint" />
          </mxGeometry>
        </mxCell>
        <mxCell id="W77Re-WcuIGh2rQA4MoI-9" value="Välj sittplatser på biosalongen" style="whiteSpace=wrap;html=1;fillColor=#FFFFFF;rounded=1;" parent="1" vertex="1">
          <mxGeometry x="640" y="58.5" width="120" height="45" as="geometry" />
        </mxCell>
        <mxCell id="W77Re-WcuIGh2rQA4MoI-11" value="" style="rhombus;whiteSpace=wrap;html=1;fillColor=#FFFFFF;rounded=1;" parent="1" vertex="1">
          <mxGeometry x="645" y="166" width="80" height="80" as="geometry" />
        </mxCell>
        <mxCell id="W77Re-WcuIGh2rQA4MoI-14" value="&lt;font style=&quot;font-size: 10px;&quot;&gt;[plats upptagen]&lt;/font&gt;" style="text;html=1;align=center;verticalAlign=middle;whiteSpace=wrap;rounded=0;" parent="1" vertex="1">
          <mxGeometry x="689" y="155" width="100" height="30" as="geometry" />
        </mxCell>
        <mxCell id="W77Re-WcuIGh2rQA4MoI-26" value="" style="edgeStyle=orthogonalEdgeStyle;rounded=0;orthogonalLoop=1;jettySize=auto;html=1;entryX=0.5;entryY=0;entryDx=0;entryDy=0;" parent="1" target="W77Re-WcuIGh2rQA4MoI-25" edge="1">
          <mxGeometry relative="1" as="geometry">
            <mxPoint x="522" y="248" as="sourcePoint" />
            <mxPoint x="522" y="293" as="targetPoint" />
          </mxGeometry>
        </mxCell>
        <mxCell id="W77Re-WcuIGh2rQA4MoI-17" value="&lt;font style=&quot;font-size: 9px;&quot;&gt;Kontrollera&lt;/font&gt;&lt;div&gt;&lt;font style=&quot;font-size: 9px;&quot;&gt;om kunden har bonuskort&lt;/font&gt;&lt;/div&gt;" style="rhombus;whiteSpace=wrap;html=1;fillColor=#FFFFFF;rounded=1;" parent="1" vertex="1">
          <mxGeometry x="477" y="161" width="90" height="90" as="geometry" />
        </mxCell>
        <mxCell id="8NC1WQgO3h0OV6-Bim1F-9" value="" style="edgeStyle=orthogonalEdgeStyle;rounded=0;orthogonalLoop=1;jettySize=auto;html=1;" edge="1" parent="1" source="W77Re-WcuIGh2rQA4MoI-19" target="W77Re-WcuIGh2rQA4MoI-39">
          <mxGeometry relative="1" as="geometry" />
        </mxCell>
        <mxCell id="W77Re-WcuIGh2rQA4MoI-19" value="Deklarera bonuskort, kontonummer, rabatt" style="rounded=1;whiteSpace=wrap;html=1;" parent="1" vertex="1">
          <mxGeometry x="130" y="107.25" width="130" height="78.75" as="geometry" />
        </mxCell>
        <mxCell id="W77Re-WcuIGh2rQA4MoI-31" style="edgeStyle=orthogonalEdgeStyle;rounded=0;orthogonalLoop=1;jettySize=auto;html=1;exitX=0.5;exitY=1;exitDx=0;exitDy=0;entryX=0;entryY=0.5;entryDx=0;entryDy=0;" parent="1" source="W77Re-WcuIGh2rQA4MoI-23" target="W77Re-WcuIGh2rQA4MoI-25" edge="1">
          <mxGeometry relative="1" as="geometry" />
        </mxCell>
        <mxCell id="W77Re-WcuIGh2rQA4MoI-23" value="Lägg på rabatten på slutpriset" style="whiteSpace=wrap;html=1;fillColor=#FFFFFF;rounded=1;" parent="1" vertex="1">
          <mxGeometry x="292" y="181" width="120" height="50" as="geometry" />
        </mxCell>
        <mxCell id="W77Re-WcuIGh2rQA4MoI-28" value="" style="edgeStyle=orthogonalEdgeStyle;rounded=0;orthogonalLoop=1;jettySize=auto;html=1;" parent="1" source="W77Re-WcuIGh2rQA4MoI-25" target="W77Re-WcuIGh2rQA4MoI-27" edge="1">
          <mxGeometry relative="1" as="geometry" />
        </mxCell>
        <mxCell id="W77Re-WcuIGh2rQA4MoI-25" value="Ange kontokortsnummer" style="whiteSpace=wrap;html=1;fillColor=#FFFFFF;rounded=1;" parent="1" vertex="1">
          <mxGeometry x="462" y="296" width="120" height="50" as="geometry" />
        </mxCell>
        <mxCell id="W77Re-WcuIGh2rQA4MoI-30" value="" style="edgeStyle=orthogonalEdgeStyle;rounded=0;orthogonalLoop=1;jettySize=auto;html=1;" parent="1" source="W77Re-WcuIGh2rQA4MoI-27" target="W77Re-WcuIGh2rQA4MoI-29" edge="1">
          <mxGeometry relative="1" as="geometry" />
        </mxCell>
        <mxCell id="W77Re-WcuIGh2rQA4MoI-27" value="Lägg till kostnad till kontokortsnr." style="whiteSpace=wrap;html=1;fillColor=#FFFFFF;rounded=1;" parent="1" vertex="1">
          <mxGeometry x="462" y="376" width="120" height="50" as="geometry" />
        </mxCell>
        <mxCell id="W77Re-WcuIGh2rQA4MoI-35" value="" style="edgeStyle=orthogonalEdgeStyle;rounded=0;orthogonalLoop=1;jettySize=auto;html=1;" parent="1" source="W77Re-WcuIGh2rQA4MoI-29" target="W77Re-WcuIGh2rQA4MoI-34" edge="1">
          <mxGeometry relative="1" as="geometry" />
        </mxCell>
        <mxCell id="W77Re-WcuIGh2rQA4MoI-29" value="Skriv ut bekräftelse" style="whiteSpace=wrap;html=1;fillColor=#FFFFFF;rounded=1;" parent="1" vertex="1">
          <mxGeometry x="462" y="456" width="120" height="45" as="geometry" />
        </mxCell>
        <mxCell id="W77Re-WcuIGh2rQA4MoI-32" value="&lt;font style=&quot;font-size: 10px;&quot;&gt;[bonuskort = true]&lt;/font&gt;" style="text;html=1;align=center;verticalAlign=middle;whiteSpace=wrap;rounded=0;" parent="1" vertex="1">
          <mxGeometry x="401" y="156" width="110" height="30" as="geometry" />
        </mxCell>
        <mxCell id="W77Re-WcuIGh2rQA4MoI-33" value="&lt;font style=&quot;font-size: 10px;&quot;&gt;[bonuskort = false]&lt;/font&gt;" style="text;html=1;align=center;verticalAlign=middle;whiteSpace=wrap;rounded=0;" parent="1" vertex="1">
          <mxGeometry x="518" y="251" width="110" height="30" as="geometry" />
        </mxCell>
        <mxCell id="W77Re-WcuIGh2rQA4MoI-34" value="" style="ellipse;whiteSpace=wrap;html=1;fillColor=#FFFFFF;rounded=1;" parent="1" vertex="1">
          <mxGeometry x="505.5" y="556" width="33" height="32.5" as="geometry" />
        </mxCell>
        <mxCell id="W77Re-WcuIGh2rQA4MoI-38" value="" style="ellipse;whiteSpace=wrap;html=1;aspect=fixed;fillColor=#000000;" parent="1" vertex="1">
          <mxGeometry x="512" y="562.25" width="20" height="20" as="geometry" />
        </mxCell>
        <mxCell id="8NC1WQgO3h0OV6-Bim1F-10" style="edgeStyle=orthogonalEdgeStyle;rounded=0;orthogonalLoop=1;jettySize=auto;html=1;exitX=0.5;exitY=1;exitDx=0;exitDy=0;entryX=0.5;entryY=0;entryDx=0;entryDy=0;" edge="1" parent="1" source="W77Re-WcuIGh2rQA4MoI-39" target="W77Re-WcuIGh2rQA4MoI-2">
          <mxGeometry relative="1" as="geometry" />
        </mxCell>
        <mxCell id="W77Re-WcuIGh2rQA4MoI-39" value="Skapa ett objekt av typen Scanner" style="whiteSpace=wrap;html=1;rounded=1;" parent="1" vertex="1">
          <mxGeometry x="135" y="220.995" width="120" height="60" as="geometry" />
        </mxCell>
        <mxCell id="8NC1WQgO3h0OV6-Bim1F-1" value="" style="endArrow=none;html=1;rounded=0;" edge="1" parent="1">
          <mxGeometry width="50" height="50" relative="1" as="geometry">
            <mxPoint x="414" y="720" as="sourcePoint" />
            <mxPoint x="414" y="27" as="targetPoint" />
          </mxGeometry>
        </mxCell>
        <mxCell id="8NC1WQgO3h0OV6-Bim1F-2" value="&lt;font style=&quot;font-size: 24px;&quot;&gt;SF&lt;/font&gt;" style="text;html=1;align=center;verticalAlign=middle;resizable=0;points=[];autosize=1;strokeColor=none;fillColor=none;fontStyle=1" vertex="1" parent="1">
          <mxGeometry x="170" y="20" width="50" height="40" as="geometry" />
        </mxCell>
        <mxCell id="8NC1WQgO3h0OV6-Bim1F-3" value="&lt;font style=&quot;font-size: 24px;&quot;&gt;&lt;b&gt;Kunden&lt;/b&gt;&lt;/font&gt;" style="text;html=1;align=center;verticalAlign=middle;resizable=0;points=[];autosize=1;strokeColor=none;fillColor=none;" vertex="1" parent="1">
          <mxGeometry x="567" y="20" width="110" height="40" as="geometry" />
        </mxCell>
      </root>
    </mxGraphModel>
  </diagram>
</mxfile>
